STARTFONT 2.1
COMMENT This font was automatically resized by bdfresize-1.5
COMMENT   mag_x = 3/2, mag_y = 3/2, blackness = 4
COMMENT MZ-700 ASCII font
COMMENT 8x8 dot bitmap font
COMMENT not resize. original size.
FONT -Mz700bdfascii-Fixed-Medium-R-Normal--12-120-75-75-M-120-ISO10646-1
SIZE 12 75 75
FONTBOUNDINGBOX 12 12 0 0
STARTPROPERTIES 19
FONT_ASCENT 12
FONT_DESCENT 0
DEFAULT_CHAR 32
COPYRIGHT "Unknown"
FONTNAME_REGISTRY ""
FOUNDRY "Mz700bdfascii"
FAMILY_NAME "Fixed"
WEIGHT_NAME "Medium"
SLANT "R"
SETWIDTH_NAME "Normal"
ADD_STYLE_NAME ""
PIXEL_SIZE 12
POINT_SIZE 120
RESOLUTION_X 75
RESOLUTION_Y 75
SPACING "M"
AVERAGE_WIDTH 120
CHARSET_REGISTRY "ISO10646"
CHARSET_ENCODING "1"
ENDPROPERTIES
CHARS 344
STARTCHAR 20
ENCODING 32
SWIDTH 1440 0
DWIDTH 12 0
BBX 12 12 0 0
BITMAP
0000
0000
0000
0000
0000
0000
0000
0000
0000
0000
0000
0000
ENDCHAR
STARTCHAR 21
ENCODING 33
SWIDTH 1440 0
DWIDTH 12 0
BBX 12 12 0 0
BITMAP
0300
0300
0300
0300
0300
0300
0000
0000
0000
0300
0300
0000
ENDCHAR
STARTCHAR 22
ENCODING 34
SWIDTH 1440 0
DWIDTH 12 0
BBX 12 12 0 0
BITMAP
1980
1980
1980
1980
1980
0000
0000
0000
0000
0000
0000
0000
ENDCHAR
STARTCHAR 23
ENCODING 35
SWIDTH 1440 0
DWIDTH 12 0
BBX 12 12 0 0
BITMAP
1980
1980
1980
7FE0
7FE0
1980
7FE0
7FE0
1980
1980
1980
0000
ENDCHAR
STARTCHAR 24
ENCODING 36
SWIDTH 1440 0
DWIDTH 12 0
BBX 12 12 0 0
BITMAP
0300
0FE0
0FE0
1B00
1F80
0F80
0360
1FE0
1F80
0300
0300
0000
ENDCHAR
STARTCHAR 25
ENCODING 37
SWIDTH 1440 0
DWIDTH 12 0
BBX 12 12 0 0
BITMAP
0000
7860
7860
7980
7B80
0300
0C00
1DE0
19E0
61E0
61E0
0000
ENDCHAR
STARTCHAR 26
ENCODING 38
SWIDTH 1440 0
DWIDTH 12 0
BBX 12 12 0 0
BITMAP
1C00
7F00
6300
6300
7F00
1C00
6360
63E0
6180
1F60
1F60
0000
ENDCHAR
STARTCHAR 27
ENCODING 39
SWIDTH 1440 0
DWIDTH 12 0
BBX 12 12 0 0
BITMAP
0180
0380
0300
0C00
0C00
0000
0000
0000
0000
0000
0000
0000
ENDCHAR
STARTCHAR 28
ENCODING 40
SWIDTH 1440 0
DWIDTH 12 0
BBX 12 12 0 0
BITMAP
0180
0380
0300
0C00
0C00
0C00
0C00
0F00
0300
0180
0180
0000
ENDCHAR
STARTCHAR 29
ENCODING 41
SWIDTH 1440 0
DWIDTH 12 0
BBX 12 12 0 0
BITMAP
1800
1C00
0C00
0300
0300
0300
0300
0F00
0C00
1800
1800
0000
ENDCHAR
STARTCHAR 2a
ENCODING 42
SWIDTH 1440 0
DWIDTH 12 0
BBX 12 12 0 0
BITMAP
0300
1B60
1B60
0F80
1FE0
1FE0
0F80
1FE0
1B60
0300
0300
0000
ENDCHAR
STARTCHAR 2b
ENCODING 43
SWIDTH 1440 0
DWIDTH 12 0
BBX 12 12 0 0
BITMAP
0000
0300
0300
0300
1FE0
1FE0
0300
0300
0300
0000
0000
0000
ENDCHAR
STARTCHAR 2c
ENCODING 44
SWIDTH 1440 0
DWIDTH 12 0
BBX 12 12 0 0
BITMAP
0000
0000
0000
0000
0000
0000
0000
0300
0300
0300
0F00
0C00
ENDCHAR
STARTCHAR 2d
ENCODING 45
SWIDTH 1440 0
DWIDTH 12 0
BBX 12 12 0 0
BITMAP
0000
0000
0000
0000
7FE0
7FE0
0000
0000
0000
0000
0000
0000
ENDCHAR
STARTCHAR 2e
ENCODING 46
SWIDTH 1440 0
DWIDTH 12 0
BBX 12 12 0 0
BITMAP
0000
0000
0000
0000
0000
0000
0000
0F00
0F00
0F00
0F00
0000
ENDCHAR
STARTCHAR 2f
ENCODING 47
SWIDTH 1440 0
DWIDTH 12 0
BBX 12 12 0 0
BITMAP
0000
0060
0060
0180
0380
0300
0C00
1C00
1800
6000
6000
0000
ENDCHAR
STARTCHAR 30
ENCODING 48
SWIDTH 1440 0
DWIDTH 12 0
BBX 12 12 0 0
BITMAP
1F80
7FE0
6060
61E0
6FE0
6F60
7860
7860
6060
1F80
1F80
0000
ENDCHAR
STARTCHAR 31
ENCODING 49
SWIDTH 1440 0
DWIDTH 12 0
BBX 12 12 0 0
BITMAP
0300
0F00
0F00
1B00
1B00
0300
0300
0300
0300
1FE0
1FE0
0000
ENDCHAR
STARTCHAR 32
ENCODING 50
SWIDTH 1440 0
DWIDTH 12 0
BBX 12 12 0 0
BITMAP
1F80
7FE0
6060
0060
03E0
0380
1C00
7C00
6000
7FE0
7FE0
0000
ENDCHAR
STARTCHAR 33
ENCODING 51
SWIDTH 1440 0
DWIDTH 12 0
BBX 12 12 0 0
BITMAP
1F80
7FE0
6060
0060
1FE0
1F80
0060
6060
6060
1F80
1F80
0000
ENDCHAR
STARTCHAR 34
ENCODING 52
SWIDTH 1440 0
DWIDTH 12 0
BBX 12 12 0 0
BITMAP
0180
0380
0380
0D80
1D80
1980
7FE0
7FE0
0180
0180
0180
0000
ENDCHAR
STARTCHAR 35
ENCODING 53
SWIDTH 1440 0
DWIDTH 12 0
BBX 12 12 0 0
BITMAP
7FE0
7FE0
6000
7F00
7F80
0180
0060
61E0
6180
1F00
1F00
0000
ENDCHAR
STARTCHAR 36
ENCODING 54
SWIDTH 1440 0
DWIDTH 12 0
BBX 12 12 0 0
BITMAP
0F80
1F80
1800
6000
7F80
7F80
6060
6060
6060
1F80
1F80
0000
ENDCHAR
STARTCHAR 37
ENCODING 55
SWIDTH 1440 0
DWIDTH 12 0
BBX 12 12 0 0
BITMAP
7FE0
7FE0
6060
0180
0380
0300
0C00
0C00
0C00
0C00
0C00
0000
ENDCHAR
STARTCHAR 38
ENCODING 56
SWIDTH 1440 0
DWIDTH 12 0
BBX 12 12 0 0
BITMAP
1F80
7FE0
6060
6060
7FE0
1F80
6060
6060
6060
1F80
1F80
0000
ENDCHAR
STARTCHAR 39
ENCODING 57
SWIDTH 1440 0
DWIDTH 12 0
BBX 12 12 0 0
BITMAP
1F80
7FE0
6060
6060
7FE0
1FE0
0060
01E0
0180
1F00
1F00
0000
ENDCHAR
STARTCHAR 3a
ENCODING 58
SWIDTH 1440 0
DWIDTH 12 0
BBX 12 12 0 0
BITMAP
0000
0000
0000
0300
0300
0000
0000
0300
0300
0000
0000
0000
ENDCHAR
STARTCHAR 3b
ENCODING 59
SWIDTH 1440 0
DWIDTH 12 0
BBX 12 12 0 0
BITMAP
0000
0000
0000
0300
0300
0000
0000
0300
0300
0300
0F00
0C00
ENDCHAR
STARTCHAR 3c
ENCODING 60
SWIDTH 1440 0
DWIDTH 12 0
BBX 12 12 0 0
BITMAP
03E0
0FE0
0F00
1C00
7C00
7800
1C00
1F00
0F00
03E0
03E0
0000
ENDCHAR
STARTCHAR 3d
ENCODING 61
SWIDTH 1440 0
DWIDTH 12 0
BBX 12 12 0 0
BITMAP
0000
0000
0000
7FE0
7FE0
0000
7FE0
7FE0
0000
0000
0000
0000
ENDCHAR
STARTCHAR 3e
ENCODING 62
SWIDTH 1440 0
DWIDTH 12 0
BBX 12 12 0 0
BITMAP
7C00
7F00
0F00
0380
03E0
01E0
0380
0F80
0F00
7C00
7C00
0000
ENDCHAR
STARTCHAR 3f
ENCODING 63
SWIDTH 1440 0
DWIDTH 12 0
BBX 12 12 0 0
BITMAP
1F80
7FE0
6060
0060
03E0
0380
0C00
0C00
0000
0C00
0C00
0000
ENDCHAR
STARTCHAR 40
ENCODING 64
SWIDTH 1440 0
DWIDTH 12 0
BBX 12 12 0 0
BITMAP
0F80
1FE0
1860
6360
6FE0
6DE0
6380
7B80
1800
0FE0
0FE0
0000
ENDCHAR
STARTCHAR 41
ENCODING 65
SWIDTH 1440 0
DWIDTH 12 0
BBX 12 12 0 0
BITMAP
0F00
1F80
1980
6060
7FE0
7FE0
6060
6060
6060
6060
6060
0000
ENDCHAR
STARTCHAR 42
ENCODING 66
SWIDTH 1440 0
DWIDTH 12 0
BBX 12 12 0 0
BITMAP
7F80
7FE0
1860
1860
1FE0
1F80
1860
1860
1860
7F80
7F80
0000
ENDCHAR
STARTCHAR 43
ENCODING 67
SWIDTH 1440 0
DWIDTH 12 0
BBX 12 12 0 0
BITMAP
0F80
1FE0
1860
6000
6000
6000
6000
7860
1860
0F80
0F80
0000
ENDCHAR
STARTCHAR 44
ENCODING 68
SWIDTH 1440 0
DWIDTH 12 0
BBX 12 12 0 0
BITMAP
7F00
7F80
1980
1860
1860
1860
1860
19E0
1980
7F00
7F00
0000
ENDCHAR
STARTCHAR 45
ENCODING 69
SWIDTH 1440 0
DWIDTH 12 0
BBX 12 12 0 0
BITMAP
7FE0
7FE0
6000
6000
7F00
7F00
6000
6000
6000
7FE0
7FE0
0000
ENDCHAR
STARTCHAR 46
ENCODING 70
SWIDTH 1440 0
DWIDTH 12 0
BBX 12 12 0 0
BITMAP
7FE0
7FE0
6000
6000
7F00
7F00
6000
6000
6000
6000
6000
0000
ENDCHAR
STARTCHAR 47
ENCODING 71
SWIDTH 1440 0
DWIDTH 12 0
BBX 12 12 0 0
BITMAP
0F80
1FE0
1860
6000
63E0
63E0
6060
7860
1860
0F80
0F80
0000
ENDCHAR
STARTCHAR 48
ENCODING 72
SWIDTH 1440 0
DWIDTH 12 0
BBX 12 12 0 0
BITMAP
6060
6060
6060
6060
7FE0
7FE0
6060
6060
6060
6060
6060
0000
ENDCHAR
STARTCHAR 49
ENCODING 73
SWIDTH 1440 0
DWIDTH 12 0
BBX 12 12 0 0
BITMAP
0F80
0F80
0300
0300
0300
0300
0300
0300
0300
0F80
0F80
0000
ENDCHAR
STARTCHAR 4a
ENCODING 74
SWIDTH 1440 0
DWIDTH 12 0
BBX 12 12 0 0
BITMAP
03E0
03E0
0180
0180
0180
0180
0180
6180
6180
1F00
1F00
0000
ENDCHAR
STARTCHAR 4b
ENCODING 75
SWIDTH 1440 0
DWIDTH 12 0
BBX 12 12 0 0
BITMAP
6060
61E0
6180
6300
7F00
7C00
6300
6380
6180
6060
6060
0000
ENDCHAR
STARTCHAR 4c
ENCODING 76
SWIDTH 1440 0
DWIDTH 12 0
BBX 12 12 0 0
BITMAP
6000
6000
6000
6000
6000
6000
6000
6000
6000
7FE0
7FE0
0000
ENDCHAR
STARTCHAR 4d
ENCODING 77
SWIDTH 1440 0
DWIDTH 12 0
BBX 12 12 0 0
BITMAP
6060
79E0
79E0
6F60
6F60
6F60
6060
6060
6060
6060
6060
0000
ENDCHAR
STARTCHAR 4e
ENCODING 78
SWIDTH 1440 0
DWIDTH 12 0
BBX 12 12 0 0
BITMAP
6060
7860
7860
6C60
6F60
6360
61E0
61E0
6060
6060
6060
0000
ENDCHAR
STARTCHAR 4f
ENCODING 79
SWIDTH 1440 0
DWIDTH 12 0
BBX 12 12 0 0
BITMAP
0F00
1F80
1980
6060
6060
6060
6060
79E0
1980
0F00
0F00
0000
ENDCHAR
STARTCHAR 50
ENCODING 80
SWIDTH 1440 0
DWIDTH 12 0
BBX 12 12 0 0
BITMAP
7F80
7FE0
6060
6060
7FE0
7F80
6000
6000
6000
6000
6000
0000
ENDCHAR
STARTCHAR 51
ENCODING 81
SWIDTH 1440 0
DWIDTH 12 0
BBX 12 12 0 0
BITMAP
0F00
1F80
1980
6060
6060
6060
6360
7BE0
1980
0F60
0F60
0000
ENDCHAR
STARTCHAR 52
ENCODING 82
SWIDTH 1440 0
DWIDTH 12 0
BBX 12 12 0 0
BITMAP
7F80
7FE0
6060
6060
7FE0
7F80
6300
6380
6180
6060
6060
0000
ENDCHAR
STARTCHAR 53
ENCODING 83
SWIDTH 1440 0
DWIDTH 12 0
BBX 12 12 0 0
BITMAP
1F80
7FE0
6060
6000
7F80
1F80
0060
6060
6060
1F80
1F80
0000
ENDCHAR
STARTCHAR 54
ENCODING 84
SWIDTH 1440 0
DWIDTH 12 0
BBX 12 12 0 0
BITMAP
1FE0
1FE0
0300
0300
0300
0300
0300
0300
0300
0300
0300
0000
ENDCHAR
STARTCHAR 55
ENCODING 85
SWIDTH 1440 0
DWIDTH 12 0
BBX 12 12 0 0
BITMAP
6060
6060
6060
6060
6060
6060
6060
6060
6060
1F80
1F80
0000
ENDCHAR
STARTCHAR 56
ENCODING 86
SWIDTH 1440 0
DWIDTH 12 0
BBX 12 12 0 0
BITMAP
6060
6060
6060
6060
79E0
1980
1980
1F80
0F00
0F00
0F00
0000
ENDCHAR
STARTCHAR 57
ENCODING 87
SWIDTH 1440 0
DWIDTH 12 0
BBX 12 12 0 0
BITMAP
6060
6060
6060
6060
6F60
6F60
6F60
7FE0
79E0
6060
6060
0000
ENDCHAR
STARTCHAR 58
ENCODING 88
SWIDTH 1440 0
DWIDTH 12 0
BBX 12 12 0 0
BITMAP
6060
6060
6060
1980
1F80
0F00
1980
79E0
6060
6060
6060
0000
ENDCHAR
STARTCHAR 59
ENCODING 89
SWIDTH 1440 0
DWIDTH 12 0
BBX 12 12 0 0
BITMAP
1860
1860
1860
1860
1FE0
0F80
0300
0300
0300
0300
0300
0000
ENDCHAR
STARTCHAR 5a
ENCODING 90
SWIDTH 1440 0
DWIDTH 12 0
BBX 12 12 0 0
BITMAP
7FE0
7FE0
0060
0180
0F80
0F00
1800
7800
6000
7FE0
7FE0
0000
ENDCHAR
STARTCHAR 5b
ENCODING 91
SWIDTH 1440 0
DWIDTH 12 0
BBX 12 12 0 0
BITMAP
1F80
1F80
1800
1800
1800
1800
1800
1800
1800
1F80
1F80
0000
ENDCHAR
STARTCHAR 5c
ENCODING 92
SWIDTH 1440 0
DWIDTH 12 0
BBX 12 12 0 0
BITMAP
0000
6000
6000
1800
1C00
0C00
0300
0380
0180
0060
0060
0000
ENDCHAR
STARTCHAR 5d
ENCODING 93
SWIDTH 1440 0
DWIDTH 12 0
BBX 12 12 0 0
BITMAP
1F80
1F80
0180
0180
0180
0180
0180
0180
0180
1F80
1F80
0000
ENDCHAR
STARTCHAR 5f
ENCODING 95
SWIDTH 1440 0
DWIDTH 12 0
BBX 12 12 0 0
BITMAP
0000
0000
0000
0000
0000
0000
0000
0000
0000
0000
FFF0
FFF0
ENDCHAR
STARTCHAR 61
ENCODING 97
SWIDTH 1440 0
DWIDTH 12 0
BBX 12 12 0 0
BITMAP
0000
0000
0000
1F00
1F80
0180
1F80
7F80
6180
1F60
1F60
0000
ENDCHAR
STARTCHAR 62
ENCODING 98
SWIDTH 1440 0
DWIDTH 12 0
BBX 12 12 0 0
BITMAP
6000
6000
6000
6F80
7FE0
7860
6060
7860
7860
6F80
6F80
0000
ENDCHAR
STARTCHAR 63
ENCODING 99
SWIDTH 1440 0
DWIDTH 12 0
BBX 12 12 0 0
BITMAP
0000
0000
0000
1F80
7FE0
6060
6000
6060
6060
1F80
1F80
0000
ENDCHAR
STARTCHAR 64
ENCODING 100
SWIDTH 1440 0
DWIDTH 12 0
BBX 12 12 0 0
BITMAP
0060
0060
0060
1F60
7FE0
61E0
6060
61E0
61E0
1F60
1F60
0000
ENDCHAR
STARTCHAR 65
ENCODING 101
SWIDTH 1440 0
DWIDTH 12 0
BBX 12 12 0 0
BITMAP
0000
0000
0000
1F80
7FE0
6060
7FE0
7FE0
6000
1F80
1F80
0000
ENDCHAR
STARTCHAR 66
ENCODING 102
SWIDTH 1440 0
DWIDTH 12 0
BBX 12 12 0 0
BITMAP
0380
0FE0
0C60
0C00
7F80
7F80
0C00
0C00
0C00
0C00
0C00
0000
ENDCHAR
STARTCHAR 67
ENCODING 103
SWIDTH 1440 0
DWIDTH 12 0
BBX 12 12 0 0
BITMAP
0000
0000
0000
1F60
7FE0
61E0
61E0
7FE0
1F60
0060
1FE0
1F80
ENDCHAR
STARTCHAR 68
ENCODING 104
SWIDTH 1440 0
DWIDTH 12 0
BBX 12 12 0 0
BITMAP
6000
6000
6000
6F80
7FE0
7860
6060
6060
6060
6060
6060
0000
ENDCHAR
STARTCHAR 69
ENCODING 105
SWIDTH 1440 0
DWIDTH 12 0
BBX 12 12 0 0
BITMAP
0300
0300
0000
0F00
0F00
0300
0300
0300
0300
0F80
0F80
0000
ENDCHAR
STARTCHAR 6a
ENCODING 106
SWIDTH 1440 0
DWIDTH 12 0
BBX 12 12 0 0
BITMAP
0180
0180
0000
0380
0380
0180
0180
0180
0180
6180
7F80
1F00
ENDCHAR
STARTCHAR 6b
ENCODING 107
SWIDTH 1440 0
DWIDTH 12 0
BBX 12 12 0 0
BITMAP
6000
6000
6000
6180
6380
6300
6C00
7F00
7B00
6180
6180
0000
ENDCHAR
STARTCHAR 6c
ENCODING 108
SWIDTH 1440 0
DWIDTH 12 0
BBX 12 12 0 0
BITMAP
0F00
0F00
0300
0300
0300
0300
0300
0300
0300
0F80
0F80
0000
ENDCHAR
STARTCHAR 6d
ENCODING 109
SWIDTH 1440 0
DWIDTH 12 0
BBX 12 12 0 0
BITMAP
0000
0000
0000
7DE0
7FF0
6330
6330
6330
6330
6330
6330
0000
ENDCHAR
STARTCHAR 6e
ENCODING 110
SWIDTH 1440 0
DWIDTH 12 0
BBX 12 12 0 0
BITMAP
0000
0000
0000
6F80
7FE0
7860
6060
6060
6060
6060
6060
0000
ENDCHAR
STARTCHAR 6f
ENCODING 111
SWIDTH 1440 0
DWIDTH 12 0
BBX 12 12 0 0
BITMAP
0000
0000
0000
1F80
7FE0
6060
6060
6060
6060
1F80
1F80
0000
ENDCHAR
STARTCHAR 70
ENCODING 112
SWIDTH 1440 0
DWIDTH 12 0
BBX 12 12 0 0
BITMAP
0000
0000
0000
6F80
7FE0
7860
7860
7FE0
6F80
6000
6000
6000
ENDCHAR
STARTCHAR 71
ENCODING 113
SWIDTH 1440 0
DWIDTH 12 0
BBX 12 12 0 0
BITMAP
0000
0000
0000
1F60
7FE0
61E0
61E0
7FE0
1F60
0060
0060
0060
ENDCHAR
STARTCHAR 72
ENCODING 114
SWIDTH 1440 0
DWIDTH 12 0
BBX 12 12 0 0
BITMAP
0000
0000
0000
6F80
7FE0
7860
6000
6000
6000
6000
6000
0000
ENDCHAR
STARTCHAR 73
ENCODING 115
SWIDTH 1440 0
DWIDTH 12 0
BBX 12 12 0 0
BITMAP
0000
0000
0000
1FE0
7FE0
6000
1F80
1FE0
0060
7F80
7F80
0000
ENDCHAR
STARTCHAR 74
ENCODING 116
SWIDTH 1440 0
DWIDTH 12 0
BBX 12 12 0 0
BITMAP
0C00
0C00
0C00
7F80
7F80
0C00
0C00
0C60
0C60
0380
0380
0000
ENDCHAR
STARTCHAR 75
ENCODING 117
SWIDTH 1440 0
DWIDTH 12 0
BBX 12 12 0 0
BITMAP
0000
0000
0000
6060
6060
6060
6060
6060
6060
1F80
1F80
0000
ENDCHAR
STARTCHAR 76
ENCODING 118
SWIDTH 1440 0
DWIDTH 12 0
BBX 12 12 0 0
BITMAP
0000
0000
0000
6060
6060
6060
6060
79E0
1980
0F00
0F00
0000
ENDCHAR
STARTCHAR 77
ENCODING 119
SWIDTH 1440 0
DWIDTH 12 0
BBX 12 12 0 0
BITMAP
0000
0000
0000
6030
6330
6330
6330
6330
6330
1DE0
1DE0
0000
ENDCHAR
STARTCHAR 78
ENCODING 120
SWIDTH 1440 0
DWIDTH 12 0
BBX 12 12 0 0
BITMAP
0000
0000
0000
6180
7B80
1B00
0C00
1F00
1B00
6180
6180
0000
ENDCHAR
STARTCHAR 79
ENCODING 121
SWIDTH 1440 0
DWIDTH 12 0
BBX 12 12 0 0
BITMAP
0000
0000
0000
6060
6060
6060
61E0
7FE0
1F60
0060
1FE0
1F80
ENDCHAR
STARTCHAR 7a
ENCODING 122
SWIDTH 1440 0
DWIDTH 12 0
BBX 12 12 0 0
BITMAP
0000
0000
0000
7FE0
7FE0
0180
0F00
1F00
1800
7FE0
7FE0
0000
ENDCHAR
STARTCHAR 7c
ENCODING 124
SWIDTH 1440 0
DWIDTH 12 0
BBX 12 12 0 0
BITMAP
0300
0300
0300
0300
0300
0300
0300
0300
0300
0300
0300
0300
ENDCHAR
STARTCHAR 7e
ENCODING 126
SWIDTH 1440 0
DWIDTH 12 0
BBX 12 12 0 0
BITMAP
0000
0000
0000
1800
7C00
6C00
C300
C3B0
01B0
0060
0060
0000
ENDCHAR
STARTCHAR d7
ENCODING 215
SWIDTH 1440 0
DWIDTH 12 0
BBX 12 12 0 0
BITMAP
C030
E070
6060
1980
1F80
0F00
0F00
1F80
1980
6060
E070
C030
ENDCHAR
STARTCHAR 3c0
ENCODING 960
SWIDTH 1440 0
DWIDTH 12 0
BBX 12 12 0 0
BITMAP
0000
0000
0000
0030
1FF0
1FE0
6D80
6D80
0D80
0D80
0D80
0000
ENDCHAR
STARTCHAR 2026
ENCODING 8230
SWIDTH 1440 0
DWIDTH 12 0
BBX 12 12 0 0
BITMAP
0000
0000
0000
0000
0000
0000
0000
7C00
7C00
6C00
7C00
7C00
ENDCHAR
STARTCHAR 2190
ENCODING 8592
SWIDTH 1440 0
DWIDTH 12 0
BBX 12 12 0 0
BITMAP
0000
0000
0000
0C00
1C00
1800
7FF0
7FF0
1800
0C00
0C00
0000
ENDCHAR
STARTCHAR 2191
ENCODING 8593
SWIDTH 1440 0
DWIDTH 12 0
BBX 12 12 0 0
BITMAP
0000
0300
0300
0F80
1FE0
1B60
0300
0300
0300
0300
0300
0000
ENDCHAR
STARTCHAR 2192
ENCODING 8594
SWIDTH 1440 0
DWIDTH 12 0
BBX 12 12 0 0
BITMAP
0000
0000
0000
0300
0380
0180
FFE0
FFE0
0180
0300
0300
0000
ENDCHAR
STARTCHAR 2193
ENCODING 8595
SWIDTH 1440 0
DWIDTH 12 0
BBX 12 12 0 0
BITMAP
0000
0300
0300
0300
0300
0300
1B60
1FE0
0F80
0300
0300
0000
ENDCHAR
STARTCHAR 21bf
ENCODING 8639
SWIDTH 1440 0
DWIDTH 12 0
BBX 12 12 0 0
BITMAP
0060
0060
0060
0060
0060
0060
0060
0060
0060
01F0
01F0
0060
ENDCHAR
STARTCHAR 21c0
ENCODING 8640
SWIDTH 1440 0
DWIDTH 12 0
BBX 12 12 0 0
BITMAP
0000
0000
0000
0000
0000
0000
0000
0060
0060
FFF0
FFF0
0060
ENDCHAR
STARTCHAR 21d6
ENCODING 8662
SWIDTH 1440 0
DWIDTH 12 0
BBX 12 12 0 0
BITMAP
1800
1C00
0C00
C300
E380
6180
1860
1C70
0C30
0300
0380
0180
ENDCHAR
STARTCHAR 21d7
ENCODING 8663
SWIDTH 1440 0
DWIDTH 12 0
BBX 12 12 0 0
BITMAP
0180
0380
0300
0C30
1C70
1860
6180
E380
C300
0C00
1C00
1800
ENDCHAR
STARTCHAR 21e6
ENCODING 8678
SWIDTH 1440 0
DWIDTH 12 0
BBX 12 12 0 0
BITMAP
FFF0
FFF0
FFF0
FBF0
FFF0
EFF0
C030
EFF0
EFF0
FBF0
FFF0
FFF0
ENDCHAR
STARTCHAR 21e7
ENCODING 8679
SWIDTH 1440 0
DWIDTH 12 0
BBX 12 12 0 0
BITMAP
FFF0
FFF0
FDF0
F870
FDF0
EDB0
FDF0
FDF0
FDF0
FDF0
FFF0
FFF0
ENDCHAR
STARTCHAR 21e8
ENCODING 8680
SWIDTH 1440 0
DWIDTH 12 0
BBX 12 12 0 0
BITMAP
FFF0
FFF0
FFF0
FDF0
FFF0
FF70
C030
FF70
FF70
FDF0
FFF0
FFF0
ENDCHAR
STARTCHAR 21e9
ENCODING 8681
SWIDTH 1440 0
DWIDTH 12 0
BBX 12 12 0 0
BITMAP
FFF0
FFF0
FDF0
FDF0
FDF0
FDF0
EDB0
FDF0
F870
FDF0
FFF0
FFF0
ENDCHAR
STARTCHAR 22a5
ENCODING 8869
SWIDTH 1440 0
DWIDTH 12 0
BBX 12 12 0 0
BITMAP
0060
0060
0060
0060
0060
0060
0060
0060
0060
FFF0
FFF0
0060
ENDCHAR
STARTCHAR 2460
ENCODING 9312
SWIDTH 1440 0
DWIDTH 12 0
BBX 12 12 0 0
BITMAP
0000
7C00
7C00
7C00
7C00
7C00
0000
0000
0000
0000
0000
0000
ENDCHAR
STARTCHAR 2461
ENCODING 9313
SWIDTH 1440 0
DWIDTH 12 0
BBX 12 12 0 0
BITMAP
0000
01F0
01F0
01F0
01F0
01F0
0000
0000
0000
0000
0000
0000
ENDCHAR
STARTCHAR 2462
ENCODING 9314
SWIDTH 1440 0
DWIDTH 12 0
BBX 12 12 0 0
BITMAP
0000
7DF0
7DF0
7DF0
7DF0
7DF0
0000
0000
0000
0000
0000
0000
ENDCHAR
STARTCHAR 2463
ENCODING 9315
SWIDTH 1440 0
DWIDTH 12 0
BBX 12 12 0 0
BITMAP
0000
0000
0000
0000
0000
0000
0000
7C00
7C00
7C00
7C00
7C00
ENDCHAR
STARTCHAR 2464
ENCODING 9316
SWIDTH 1440 0
DWIDTH 12 0
BBX 12 12 0 0
BITMAP
0000
7C00
7C00
7C00
7C00
7C00
0000
7C00
7C00
7C00
7C00
7C00
ENDCHAR
STARTCHAR 2465
ENCODING 9317
SWIDTH 1440 0
DWIDTH 12 0
BBX 12 12 0 0
BITMAP
0000
01F0
01F0
01F0
01F0
01F0
0000
7C00
7C00
7C00
7C00
7C00
ENDCHAR
STARTCHAR 2466
ENCODING 9318
SWIDTH 1440 0
DWIDTH 12 0
BBX 12 12 0 0
BITMAP
0000
7DF0
7DF0
7DF0
7DF0
7DF0
0000
7C00
7C00
7C00
7C00
7C00
ENDCHAR
STARTCHAR 2467
ENCODING 9319
SWIDTH 1440 0
DWIDTH 12 0
BBX 12 12 0 0
BITMAP
0000
0000
0000
0000
0000
0000
0000
01F0
01F0
01F0
01F0
01F0
ENDCHAR
STARTCHAR 2468
ENCODING 9320
SWIDTH 1440 0
DWIDTH 12 0
BBX 12 12 0 0
BITMAP
0000
7C00
7C00
7C00
7C00
7C00
0000
01F0
01F0
01F0
01F0
01F0
ENDCHAR
STARTCHAR 2469
ENCODING 9321
SWIDTH 1440 0
DWIDTH 12 0
BBX 12 12 0 0
BITMAP
0000
01F0
01F0
01F0
01F0
01F0
0000
01F0
01F0
01F0
01F0
01F0
ENDCHAR
STARTCHAR 246a
ENCODING 9322
SWIDTH 1440 0
DWIDTH 12 0
BBX 12 12 0 0
BITMAP
0000
7DF0
7DF0
7DF0
7DF0
7DF0
0000
01F0
01F0
01F0
01F0
01F0
ENDCHAR
STARTCHAR 246b
ENCODING 9323
SWIDTH 1440 0
DWIDTH 12 0
BBX 12 12 0 0
BITMAP
0000
0000
0000
0000
0000
0000
0000
7DF0
7DF0
7DF0
7DF0
7DF0
ENDCHAR
STARTCHAR 246c
ENCODING 9324
SWIDTH 1440 0
DWIDTH 12 0
BBX 12 12 0 0
BITMAP
0000
7C00
7C00
7C00
7C00
7C00
0000
7DF0
7DF0
7DF0
7DF0
7DF0
ENDCHAR
STARTCHAR 246d
ENCODING 9325
SWIDTH 1440 0
DWIDTH 12 0
BBX 12 12 0 0
BITMAP
0000
01F0
01F0
01F0
01F0
01F0
0000
7DF0
7DF0
7DF0
7DF0
7DF0
ENDCHAR
STARTCHAR 246e
ENCODING 9326
SWIDTH 1440 0
DWIDTH 12 0
BBX 12 12 0 0
BITMAP
0000
7DF0
7DF0
7DF0
7DF0
7DF0
0000
7DF0
7DF0
7DF0
7DF0
7DF0
ENDCHAR
STARTCHAR 24b8
ENCODING 9400
SWIDTH 1440 0
DWIDTH 12 0
BBX 12 12 0 0
BITMAP
F870
FFF0
EFB0
DFF0
DFF0
DFF0
DFF0
FFF0
EFB0
F870
FFF0
FFF0
ENDCHAR
STARTCHAR 24bd
ENCODING 9405
SWIDTH 1440 0
DWIDTH 12 0
BBX 12 12 0 0
BITMAP
DF70
DF70
DF70
DF70
DF70
C070
DF70
DF70
DF70
DF70
FFF0
FFF0
ENDCHAR
STARTCHAR 2500
ENCODING 9472
SWIDTH 1440 0
DWIDTH 12 0
BBX 12 12 0 0
BITMAP
0000
0000
0000
0000
0000
0000
FFF0
FFF0
0000
0000
0000
0000
ENDCHAR
STARTCHAR 2503
ENCODING 9475
SWIDTH 1440 0
DWIDTH 12 0
BBX 12 12 0 0
BITMAP
0C00
0C00
0C00
0C00
0C00
0C00
0C00
0C00
0C00
0C00
0C00
0C00
ENDCHAR
STARTCHAR 2506
ENCODING 9478
SWIDTH 1440 0
DWIDTH 12 0
BBX 12 12 0 0
BITMAP
0060
0060
0060
0060
0060
0060
0060
0060
0060
0060
0060
0060
ENDCHAR
STARTCHAR 2507
ENCODING 9479
SWIDTH 1440 0
DWIDTH 12 0
BBX 12 12 0 0
BITMAP
6000
6000
6000
6000
6000
6000
6000
6000
6000
6000
6000
6000
ENDCHAR
STARTCHAR 250a
ENCODING 9482
SWIDTH 1440 0
DWIDTH 12 0
BBX 12 12 0 0
BITMAP
0180
0180
0180
0180
0180
0180
0180
0180
0180
0180
0180
0180
ENDCHAR
STARTCHAR 250b
ENCODING 9483
SWIDTH 1440 0
DWIDTH 12 0
BBX 12 12 0 0
BITMAP
1800
1800
1800
1800
1800
1800
1800
1800
1800
1800
1800
1800
ENDCHAR
STARTCHAR 250c
ENCODING 9484
SWIDTH 1440 0
DWIDTH 12 0
BBX 12 12 0 0
BITMAP
0000
0000
0000
0000
0000
0000
03F0
03F0
0300
0300
0300
0300
ENDCHAR
STARTCHAR 250f
ENCODING 9487
SWIDTH 1440 0
DWIDTH 12 0
BBX 12 12 0 0
BITMAP
FFF0
FFF0
C000
C000
C000
C000
C000
C000
C000
C000
C000
C000
ENDCHAR
STARTCHAR 2510
ENCODING 9488
SWIDTH 1440 0
DWIDTH 12 0
BBX 12 12 0 0
BITMAP
0000
0000
0000
0000
0000
0000
FF00
FF00
0300
0300
0300
0300
ENDCHAR
STARTCHAR 2513
ENCODING 9491
SWIDTH 1440 0
DWIDTH 12 0
BBX 12 12 0 0
BITMAP
FFF0
FFF0
0030
0030
0030
0030
0030
0030
0030
0030
0030
0030
ENDCHAR
STARTCHAR 2514
ENCODING 9492
SWIDTH 1440 0
DWIDTH 12 0
BBX 12 12 0 0
BITMAP
0300
0300
0300
0300
0300
0300
03F0
03F0
0000
0000
0000
0000
ENDCHAR
STARTCHAR 2517
ENCODING 9495
SWIDTH 1440 0
DWIDTH 12 0
BBX 12 12 0 0
BITMAP
C000
C000
C000
C000
C000
C000
C000
C000
C000
C000
FFF0
FFF0
ENDCHAR
STARTCHAR 2518
ENCODING 9496
SWIDTH 1440 0
DWIDTH 12 0
BBX 12 12 0 0
BITMAP
0300
0300
0300
0300
0300
0300
FF00
FF00
0000
0000
0000
0000
ENDCHAR
STARTCHAR 251b
ENCODING 9499
SWIDTH 1440 0
DWIDTH 12 0
BBX 12 12 0 0
BITMAP
0030
0030
0030
0030
0030
0030
0030
0030
0030
0030
FFF0
FFF0
ENDCHAR
STARTCHAR 251c
ENCODING 9500
SWIDTH 1440 0
DWIDTH 12 0
BBX 12 12 0 0
BITMAP
0300
0300
0300
0300
0300
0300
03F0
03F0
0300
0300
0300
0300
ENDCHAR
STARTCHAR 2524
ENCODING 9508
SWIDTH 1440 0
DWIDTH 12 0
BBX 12 12 0 0
BITMAP
0300
0300
0300
0300
0300
0300
FF00
FF00
0300
0300
0300
0300
ENDCHAR
STARTCHAR 252c
ENCODING 9516
SWIDTH 1440 0
DWIDTH 12 0
BBX 12 12 0 0
BITMAP
0000
0000
0000
0000
0000
0000
FFF0
FFF0
0300
0300
0300
0300
ENDCHAR
STARTCHAR 2534
ENCODING 9524
SWIDTH 1440 0
DWIDTH 12 0
BBX 12 12 0 0
BITMAP
0300
0300
0300
0300
0300
0300
FFF0
FFF0
0000
0000
0000
0000
ENDCHAR
STARTCHAR 253c
ENCODING 9532
SWIDTH 1440 0
DWIDTH 12 0
BBX 12 12 0 0
BITMAP
0300
0300
0300
0300
0300
0300
FFF0
FFF0
0300
0300
0300
0300
ENDCHAR
STARTCHAR 256d
ENCODING 9581
SWIDTH 1440 0
DWIDTH 12 0
BBX 12 12 0 0
BITMAP
0000
0000
0000
0000
0000
0000
0070
01F0
0180
0300
0300
0300
ENDCHAR
STARTCHAR 256e
ENCODING 9582
SWIDTH 1440 0
DWIDTH 12 0
BBX 12 12 0 0
BITMAP
0000
0000
0000
0000
0000
0000
E000
F800
1800
0C00
0C00
0C00
ENDCHAR
STARTCHAR 256f
ENCODING 9583
SWIDTH 1440 0
DWIDTH 12 0
BBX 12 12 0 0
BITMAP
0C00
0C00
0C00
1800
F800
E000
0000
0000
0000
0000
0000
0000
ENDCHAR
STARTCHAR 2570
ENCODING 9584
SWIDTH 1440 0
DWIDTH 12 0
BBX 12 12 0 0
BITMAP
0300
0300
0300
0180
01F0
0070
0000
0000
0000
0000
0000
0000
ENDCHAR
STARTCHAR 2580
ENCODING 9600
SWIDTH 1440 0
DWIDTH 12 0
BBX 12 12 0 0
BITMAP
FFF0
FFF0
FFF0
FFF0
FFF0
FFF0
0000
0000
0000
0000
0000
0000
ENDCHAR
STARTCHAR 2582
ENCODING 9602
SWIDTH 1440 0
DWIDTH 12 0
BBX 12 12 0 0
BITMAP
0000
0000
0000
0000
0000
0000
0000
0000
0000
FFF0
FFF0
FFF0
ENDCHAR
STARTCHAR 2583
ENCODING 9603
SWIDTH 1440 0
DWIDTH 12 0
BBX 12 12 0 0
BITMAP
0000
0000
0000
0000
0000
0000
0000
FFF0
FFF0
FFF0
FFF0
FFF0
ENDCHAR
STARTCHAR 2584
ENCODING 9604
SWIDTH 1440 0
DWIDTH 12 0
BBX 12 12 0 0
BITMAP
0000
0000
0000
0000
0000
0000
FFF0
FFF0
FFF0
FFF0
FFF0
FFF0
ENDCHAR
STARTCHAR 258d
ENCODING 9613
SWIDTH 1440 0
DWIDTH 12 0
BBX 12 12 0 0
BITMAP
FC00
FC00
FC00
FC00
FC00
FC00
FC00
FC00
FC00
FC00
FC00
FC00
ENDCHAR
STARTCHAR 258e
ENCODING 9614
SWIDTH 1440 0
DWIDTH 12 0
BBX 12 12 0 0
BITMAP
E000
E000
E000
E000
E000
E000
E000
E000
E000
E000
E000
E000
ENDCHAR
STARTCHAR 258f
ENCODING 9615
SWIDTH 1440 0
DWIDTH 12 0
BBX 12 12 0 0
BITMAP
C000
C000
C000
C000
C000
C000
C000
C000
C000
C000
C000
C000
ENDCHAR
STARTCHAR 2590
ENCODING 9616
SWIDTH 1440 0
DWIDTH 12 0
BBX 12 12 0 0
BITMAP
03F0
03F0
03F0
03F0
03F0
03F0
03F0
03F0
03F0
03F0
03F0
03F0
ENDCHAR
STARTCHAR 2591
ENCODING 9617
SWIDTH 1440 0
DWIDTH 12 0
BBX 12 12 0 0
BITMAP
6DB0
FFF0
DB60
6DB0
FFF0
DB60
6DB0
FFF0
DB60
6DB0
FFF0
DB60
ENDCHAR
STARTCHAR 2592
ENCODING 9618
SWIDTH 1440 0
DWIDTH 12 0
BBX 12 12 0 0
BITMAP
DB60
FFF0
6DB0
DB60
FFF0
6DB0
DB60
FFF0
6DB0
DB60
FFF0
6DB0
ENDCHAR
STARTCHAR 2593
ENCODING 9619
SWIDTH 1440 0
DWIDTH 12 0
BBX 12 12 0 0
BITMAP
D800
FC00
6C00
D800
FC00
6C00
D800
FC00
6C00
D800
FC00
6C00
ENDCHAR
STARTCHAR 2595
ENCODING 9621
SWIDTH 1440 0
DWIDTH 12 0
BBX 12 12 0 0
BITMAP
0030
0030
0030
0030
0030
0030
0030
0030
0030
0030
0030
0030
ENDCHAR
STARTCHAR 259a
ENCODING 9626
SWIDTH 1440 0
DWIDTH 12 0
BBX 12 12 0 0
BITMAP
FC00
FC00
FC00
FC00
FC00
FC00
03F0
03F0
03F0
03F0
03F0
03F0
ENDCHAR
STARTCHAR 259e
ENCODING 9630
SWIDTH 1440 0
DWIDTH 12 0
BBX 12 12 0 0
BITMAP
03F0
03F0
03F0
03F0
03F0
03F0
FC00
FC00
FC00
FC00
FC00
FC00
ENDCHAR
STARTCHAR 25a0
ENCODING 9632
SWIDTH 1440 0
DWIDTH 12 0
BBX 12 12 0 0
BITMAP
FFF0
FFF0
FFF0
FFF0
FFF0
FFF0
FFF0
FFF0
FFF0
FFF0
FFF0
FFF0
ENDCHAR
STARTCHAR 25bd
ENCODING 9661
SWIDTH 1440 0
DWIDTH 12 0
BBX 12 12 0 0
BITMAP
FFF0
FFF0
FFF0
0000
0000
0000
0000
0000
0000
0000
0000
0000
ENDCHAR
STARTCHAR 25c0
ENCODING 9664
SWIDTH 1440 0
DWIDTH 12 0
BBX 12 12 0 0
BITMAP
01F0
01F0
01F0
01F0
01F0
01F0
01F0
01F0
01F0
01F0
01F0
01F0
ENDCHAR
STARTCHAR 25c1
ENCODING 9665
SWIDTH 1440 0
DWIDTH 12 0
BBX 12 12 0 0
BITMAP
0070
0070
0070
0070
0070
0070
0070
0070
0070
0070
0070
0070
ENDCHAR
STARTCHAR 25cb
ENCODING 9675
SWIDTH 1440 0
DWIDTH 12 0
BBX 12 12 0 0
BITMAP
0000
1F80
1F80
6060
6060
6060
6060
6060
6060
1F80
1F80
0000
ENDCHAR
STARTCHAR 25ce
ENCODING 9678
SWIDTH 1440 0
DWIDTH 12 0
BBX 12 12 0 0
BITMAP
FFF0
FFF0
E070
C030
C030
C030
C030
C030
C030
E070
FFF0
FFF0
ENDCHAR
STARTCHAR 25cf
ENCODING 9679
SWIDTH 1440 0
DWIDTH 12 0
BBX 12 12 0 0
BITMAP
0000
1F80
1F80
7FE0
7FE0
7FE0
7FE0
7FE0
7FE0
1F80
1F80
0000
ENDCHAR
STARTCHAR 25e2
ENCODING 9698
SWIDTH 1440 0
DWIDTH 12 0
BBX 12 12 0 0
BITMAP
0030
0070
0070
01F0
03F0
03F0
0FF0
1FF0
1FF0
7FF0
FFF0
FFF0
ENDCHAR
STARTCHAR 25e3
ENCODING 9699
SWIDTH 1440 0
DWIDTH 12 0
BBX 12 12 0 0
BITMAP
C000
E000
E000
F800
FC00
FC00
FF00
FF80
FF80
FFE0
FFF0
FFF0
ENDCHAR
STARTCHAR 25e4
ENCODING 9700
SWIDTH 1440 0
DWIDTH 12 0
BBX 12 12 0 0
BITMAP
FFF0
FFF0
FFE0
FF80
FF80
FF00
FC00
FC00
F800
E000
E000
C000
ENDCHAR
STARTCHAR 25e5
ENCODING 9701
SWIDTH 1440 0
DWIDTH 12 0
BBX 12 12 0 0
BITMAP
FFF0
FFF0
7FF0
1FF0
1FF0
0FF0
03F0
03F0
01F0
0070
0070
0030
ENDCHAR
STARTCHAR 263a
ENCODING 9786
SWIDTH 1440 0
DWIDTH 12 0
BBX 12 12 0 0
BITMAP
1F80
7FE0
6060
C030
D9B0
D9B0
C030
CF30
CF30
6060
7FE0
1F80
ENDCHAR
STARTCHAR 263b
ENCODING 9787
SWIDTH 1440 0
DWIDTH 12 0
BBX 12 12 0 0
BITMAP
1F80
7FE0
7FE0
FFF0
FFF0
EF70
FFF0
FFF0
F9F0
7FE0
7FE0
1F80
ENDCHAR
STARTCHAR 2660
ENCODING 9824
SWIDTH 1440 0
DWIDTH 12 0
BBX 12 12 0 0
BITMAP
0300
0F80
0F80
1FE0
7FF0
7FF0
7FF0
7FF0
0F80
1FE0
1FE0
0000
ENDCHAR
STARTCHAR 2663
ENCODING 9827
SWIDTH 1440 0
DWIDTH 12 0
BBX 12 12 0 0
BITMAP
0300
0F80
0F80
1B60
7FF0
7FF0
1B60
1B60
0300
0300
0300
0000
ENDCHAR
STARTCHAR 2665
ENCODING 9829
SWIDTH 1440 0
DWIDTH 12 0
BBX 12 12 0 0
BITMAP
1DE0
7FF0
7FF0
7FF0
7FF0
7FF0
1FE0
1FE0
0F80
0300
0300
0000
ENDCHAR
STARTCHAR 2666
ENCODING 9830
SWIDTH 1440 0
DWIDTH 12 0
BBX 12 12 0 0
BITMAP
0300
0F80
0F80
1FE0
7FF0
7FF0
1FE0
1FE0
0F80
0300
0300
0000
ENDCHAR
STARTCHAR 3001
ENCODING 12289
SWIDTH 1440 0
DWIDTH 12 0
BBX 12 12 0 0
BITMAP
0000
0000
0000
0000
0000
0000
6000
7800
1800
0C00
0C00
0000
ENDCHAR
STARTCHAR 3002
ENCODING 12290
SWIDTH 1440 0
DWIDTH 12 0
BBX 12 12 0 0
BITMAP
0000
0000
0000
0000
0000
0000
7C00
7C00
6C00
7C00
7C00
0000
ENDCHAR
STARTCHAR 300c
ENCODING 12300
SWIDTH 1440 0
DWIDTH 12 0
BBX 12 12 0 0
BITMAP
0FE0
0FE0
0C00
0C00
0C00
0C00
0000
0000
0000
0000
0000
0000
ENDCHAR
STARTCHAR 300d
ENCODING 12301
SWIDTH 1440 0
DWIDTH 12 0
BBX 12 12 0 0
BITMAP
0000
0000
0000
0000
0300
0300
0300
0300
0300
7F00
7F00
0000
ENDCHAR
STARTCHAR 300e
ENCODING 12302
SWIDTH 1440 0
DWIDTH 12 0
BBX 12 12 0 0
BITMAP
0FE0
0FE0
0C00
0C00
0C00
0C00
0000
0000
0000
0000
0000
0000
ENDCHAR
STARTCHAR 300f
ENCODING 12303
SWIDTH 1440 0
DWIDTH 12 0
BBX 12 12 0 0
BITMAP
0000
0000
0000
0000
0000
0000
0300
0300
0300
0300
7F00
7F00
ENDCHAR
STARTCHAR 301d
ENCODING 12317
SWIDTH 1440 0
DWIDTH 12 0
BBX 12 12 0 0
BITMAP
1800
DC00
CC00
6000
6000
0000
0000
0000
0000
0000
0000
0000
ENDCHAR
STARTCHAR 3041
ENCODING 12353
SWIDTH 1440 0
DWIDTH 12 0
BBX 12 12 0 0
BITMAP
0000
1800
1800
7C00
7C00
1800
7F00
FF80
CD80
7B00
7B00
0000
ENDCHAR
STARTCHAR 3042
ENCODING 12354
SWIDTH 1440 0
DWIDTH 12 0
BBX 12 12 0 0
BITMAP
1800
FF80
FF80
1800
7F80
7F80
DB60
DF60
CC60
7980
7980
0000
ENDCHAR
STARTCHAR 3043
ENCODING 12355
SWIDTH 1440 0
DWIDTH 12 0
BBX 12 12 0 0
BITMAP
0000
0000
0000
6300
6380
6180
6180
6180
6180
1800
1800
0000
ENDCHAR
STARTCHAR 3044
ENCODING 12356
SWIDTH 1440 0
DWIDTH 12 0
BBX 12 12 0 0
BITMAP
C180
C1E0
C060
C060
C060
C060
C060
CC60
CC00
7800
7800
0000
ENDCHAR
STARTCHAR 3045
ENCODING 12357
SWIDTH 1440 0
DWIDTH 12 0
BBX 12 12 0 0
BITMAP
0000
1800
1800
0000
7F00
7F00
0180
0180
0180
0300
0300
0000
ENDCHAR
STARTCHAR 3046
ENCODING 12358
SWIDTH 1440 0
DWIDTH 12 0
BBX 12 12 0 0
BITMAP
0F00
0F00
0000
1F80
7FE0
6060
0060
01E0
0180
0300
0300
0000
ENDCHAR
STARTCHAR 3047
ENCODING 12359
SWIDTH 1440 0
DWIDTH 12 0
BBX 12 12 0 0
BITMAP
0000
1800
1800
0000
7F00
7F00
0C00
1C00
1C00
6380
6380
0000
ENDCHAR
STARTCHAR 3048
ENCODING 12360
SWIDTH 1440 0
DWIDTH 12 0
BBX 12 12 0 0
BITMAP
0C00
0C00
0000
7F80
7F80
0300
0C00
1F00
1B00
61E0
61E0
0000
ENDCHAR
STARTCHAR 3049
ENCODING 12361
SWIDTH 1440 0
DWIDTH 12 0
BBX 12 12 0 0
BITMAP
0000
1800
1800
7D80
7D80
1800
7F00
FF80
D980
7B00
7B00
0000
ENDCHAR
STARTCHAR 304a
ENCODING 12362
SWIDTH 1440 0
DWIDTH 12 0
BBX 12 12 0 0
BITMAP
1800
FFB0
FFB0
1830
7FB0
7F80
D860
D860
D860
7980
7980
0000
ENDCHAR
STARTCHAR 304b
ENCODING 12363
SWIDTH 1440 0
DWIDTH 12 0
BBX 12 12 0 0
BITMAP
1860
FF70
FF30
19B0
19B0
1980
1980
1980
1980
6300
6300
0000
ENDCHAR
STARTCHAR 304d
ENCODING 12365
SWIDTH 1440 0
DWIDTH 12 0
BBX 12 12 0 0
BITMAP
0C00
7FE0
7FE0
0300
7FE0
7FE0
0180
01E0
0060
7800
7F00
0F00
ENDCHAR
STARTCHAR 304f
ENCODING 12367
SWIDTH 1440 0
DWIDTH 12 0
BBX 12 12 0 0
BITMAP
0380
0F80
0F00
1C00
7C00
7800
1C00
1F00
0F00
0380
0380
0000
ENDCHAR
STARTCHAR 3051
ENCODING 12369
SWIDTH 1440 0
DWIDTH 12 0
BBX 12 12 0 0
BITMAP
C180
DFE0
DFE0
C180
C180
C180
C180
C180
C180
6300
6300
0000
ENDCHAR
STARTCHAR 3053
ENCODING 12371
SWIDTH 1440 0
DWIDTH 12 0
BBX 12 12 0 0
BITMAP
0000
FF80
FF80
0060
0060
0000
0000
C000
C000
7FE0
7FE0
0000
ENDCHAR
STARTCHAR 3055
ENCODING 12373
SWIDTH 1440 0
DWIDTH 12 0
BBX 12 12 0 0
BITMAP
1800
FFE0
FFE0
0C00
0F00
0300
6180
7980
1800
0F00
0F00
0000
ENDCHAR
STARTCHAR 3057
ENCODING 12375
SWIDTH 1440 0
DWIDTH 12 0
BBX 12 12 0 0
BITMAP
6000
6000
6000
6000
6000
6000
6180
6180
6180
1F00
1F00
0000
ENDCHAR
STARTCHAR 3059
ENCODING 12377
SWIDTH 1440 0
DWIDTH 12 0
BBX 12 12 0 0
BITMAP
0300
FFE0
FFE0
0300
1F00
1F00
6300
7F00
1F00
0300
0F00
0C00
ENDCHAR
STARTCHAR 305b
ENCODING 12379
SWIDTH 1440 0
DWIDTH 12 0
BBX 12 12 0 0
BITMAP
6180
6180
6180
FFE0
FFE0
6180
6F00
6F00
6000
1FE0
1FE0
0000
ENDCHAR
STARTCHAR 305d
ENCODING 12381
SWIDTH 1440 0
DWIDTH 12 0
BBX 12 12 0 0
BITMAP
1F80
1F80
0300
0C00
7FE0
7FE0
0300
0F00
0C00
0380
0380
0000
ENDCHAR
STARTCHAR 305f
ENCODING 12383
SWIDTH 1440 0
DWIDTH 12 0
BBX 12 12 0 0
BITMAP
1800
FF80
FF80
6000
6FE0
6FE0
C000
D800
D800
DFE0
DFE0
0000
ENDCHAR
STARTCHAR 3061
ENCODING 12385
SWIDTH 1440 0
DWIDTH 12 0
BBX 12 12 0 0
BITMAP
0C00
FFE0
FFE0
1800
7F80
7F80
0060
0060
0060
FF80
FF80
0000
ENDCHAR
STARTCHAR 3063
ENCODING 12387
SWIDTH 1440 0
DWIDTH 12 0
BBX 12 12 0 0
BITMAP
0000
0000
0000
0000
FF00
FF00
0180
0180
0180
0F00
0F00
0000
ENDCHAR
STARTCHAR 3064
ENCODING 12388
SWIDTH 1440 0
DWIDTH 12 0
BBX 12 12 0 0
BITMAP
C000
FF80
7F80
0060
0060
0060
0060
01E0
0180
0F00
0F00
0000
ENDCHAR
STARTCHAR 3066
ENCODING 12390
SWIDTH 1440 0
DWIDTH 12 0
BBX 12 12 0 0
BITMAP
FFE0
FFE0
0180
0300
0F00
0C00
0C00
0F00
0300
0180
0180
0000
ENDCHAR
STARTCHAR 3068
ENCODING 12392
SWIDTH 1440 0
DWIDTH 12 0
BBX 12 12 0 0
BITMAP
1800
1860
1860
1B80
1F80
1C00
6000
E000
C000
7FE0
7FE0
0000
ENDCHAR
STARTCHAR 306a
ENCODING 12394
SWIDTH 1440 0
DWIDTH 12 0
BBX 12 12 0 0
BITMAP
1800
FF60
FF60
6030
61B0
6180
CF80
DFE0
D9E0
0F80
0F80
0000
ENDCHAR
STARTCHAR 306b
ENCODING 12395
SWIDTH 1440 0
DWIDTH 12 0
BBX 12 12 0 0
BITMAP
CFE0
CFE0
C000
C000
C000
C000
C000
CC00
CC00
EFE0
EFE0
0000
ENDCHAR
STARTCHAR 306c
ENCODING 12396
SWIDTH 1440 0
DWIDTH 12 0
BBX 12 12 0 0
BITMAP
0180
6180
6180
7F80
7FE0
6360
DC60
DDF0
CDF0
79E0
79E0
0000
ENDCHAR
STARTCHAR 306d
ENCODING 12397
SWIDTH 1440 0
DWIDTH 12 0
BBX 12 12 0 0
BITMAP
1800
F980
F980
1B60
1F60
1C60
79E0
FBF0
DB70
19E0
19E0
0000
ENDCHAR
STARTCHAR 306e
ENCODING 12398
SWIDTH 1440 0
DWIDTH 12 0
BBX 12 12 0 0
BITMAP
1F00
7F80
6D80
CC60
CC60
CC60
CC60
CC60
CC60
7980
7980
0000
ENDCHAR
STARTCHAR 306f
ENCODING 12399
SWIDTH 1440 0
DWIDTH 12 0
BBX 12 12 0 0
BITMAP
C180
CFE0
CFE0
C180
C180
C180
CF80
DFE0
D9E0
6F80
6F80
0000
ENDCHAR
STARTCHAR 3072
ENCODING 12402
SWIDTH 1440 0
DWIDTH 12 0
BBX 12 12 0 0
BITMAP
F800
F9E0
19E0
61B0
E1B0
C180
C180
C380
C300
7C00
7C00
0000
ENDCHAR
STARTCHAR 3075
ENCODING 12405
SWIDTH 1440 0
DWIDTH 12 0
BBX 12 12 0 0
BITMAP
1F00
1F00
0000
0C00
6F60
6360
6360
E360
C360
1C00
1C00
0000
ENDCHAR
STARTCHAR 3078
ENCODING 12408
SWIDTH 1440 0
DWIDTH 12 0
BBX 12 12 0 0
BITMAP
0000
1800
1800
6C00
EF00
C300
0180
01E0
0060
0060
0060
0000
ENDCHAR
STARTCHAR 307b
ENCODING 12411
SWIDTH 1440 0
DWIDTH 12 0
BBX 12 12 0 0
BITMAP
CFE0
CFE0
C180
CFE0
CFE0
C180
CF80
DFE0
D9E0
EF80
EF80
0000
ENDCHAR
STARTCHAR 307e
ENCODING 12414
SWIDTH 1440 0
DWIDTH 12 0
BBX 12 12 0 0
BITMAP
0C00
7FE0
7FE0
0C00
7FE0
7FE0
0C00
7C00
7C00
CF80
FFE0
7C60
ENDCHAR
STARTCHAR 307f
ENCODING 12415
SWIDTH 1440 0
DWIDTH 12 0
BBX 12 12 0 0
BITMAP
7C00
7C00
0C00
0D80
7FE0
7FE0
CD80
CD80
CD80
7980
7980
0000
ENDCHAR
STARTCHAR 3080
ENCODING 12416
SWIDTH 1440 0
DWIDTH 12 0
BBX 12 12 0 0
BITMAP
1800
FFB0
FFB0
1830
7830
7800
D800
F860
7860
1FE0
1FE0
0000
ENDCHAR
STARTCHAR 3081
ENCODING 12417
SWIDTH 1440 0
DWIDTH 12 0
BBX 12 12 0 0
BITMAP
0180
6180
6180
7F80
7FE0
6360
DC60
DC60
CC60
7980
7980
0000
ENDCHAR
STARTCHAR 3082
ENCODING 12418
SWIDTH 1440 0
DWIDTH 12 0
BBX 12 12 0 0
BITMAP
1800
FF00
FF00
1800
FF00
FF00
1860
1860
1860
0F80
0F80
0000
ENDCHAR
STARTCHAR 3083
ENCODING 12419
SWIDTH 1440 0
DWIDTH 12 0
BBX 12 12 0 0
BITMAP
0000
0000
0000
6F00
FF80
F980
1B00
1B00
1800
0C00
0C00
0000
ENDCHAR
STARTCHAR 3084
ENCODING 12420
SWIDTH 1440 0
DWIDTH 12 0
BBX 12 12 0 0
BITMAP
6300
6380
6380
1C60
FC60
F860
1980
1D80
0C00
0C00
0F00
0300
ENDCHAR
STARTCHAR 3085
ENCODING 12421
SWIDTH 1440 0
DWIDTH 12 0
BBX 12 12 0 0
BITMAP
0000
0000
0000
0C00
DF00
DF00
ED80
EF80
CF00
1C00
1C00
0000
ENDCHAR
STARTCHAR 3086
ENCODING 12422
SWIDTH 1440 0
DWIDTH 12 0
BBX 12 12 0 0
BITMAP
0300
CF80
CF80
DB60
FB60
E360
E360
E3E0
C380
0F00
0F00
0000
ENDCHAR
STARTCHAR 3087
ENCODING 12423
SWIDTH 1440 0
DWIDTH 12 0
BBX 12 12 0 0
BITMAP
0000
0000
0000
1800
1F00
1F00
1800
7F00
7F00
7800
7800
0000
ENDCHAR
STARTCHAR 3088
ENCODING 12424
SWIDTH 1440 0
DWIDTH 12 0
BBX 12 12 0 0
BITMAP
0300
03E0
03E0
0300
0300
0300
7F00
FFE0
C3E0
7F00
7F00
0000
ENDCHAR
STARTCHAR 3089
ENCODING 12425
SWIDTH 1440 0
DWIDTH 12 0
BBX 12 12 0 0
BITMAP
7800
7800
0000
CF80
DFE0
D860
E060
E060
C060
0F80
0F80
0000
ENDCHAR
STARTCHAR 308a
ENCODING 12426
SWIDTH 1440 0
DWIDTH 12 0
BBX 12 12 0 0
BITMAP
6180
6180
6180
6180
7980
7980
0180
0380
0300
0C00
0C00
0000
ENDCHAR
STARTCHAR 308b
ENCODING 12427
SWIDTH 1440 0
DWIDTH 12 0
BBX 12 12 0 0
BITMAP
7F80
7F80
0300
0C00
1F80
1F80
6060
6F60
0F60
1980
1F80
0F00
ENDCHAR
STARTCHAR 308c
ENCODING 12428
SWIDTH 1440 0
DWIDTH 12 0
BBX 12 12 0 0
BITMAP
1800
F9E0
F9E0
1B80
1F80
1D80
7980
F980
D980
1860
1860
0000
ENDCHAR
STARTCHAR 308d
ENCODING 12429
SWIDTH 1440 0
DWIDTH 12 0
BBX 12 12 0 0
BITMAP
7F80
7F80
0300
0C00
1F80
1B80
6060
6060
0060
1980
1F80
0F00
ENDCHAR
STARTCHAR 308f
ENCODING 12431
SWIDTH 1440 0
DWIDTH 12 0
BBX 12 12 0 0
BITMAP
1800
F980
F980
1B60
1F60
1C60
7860
F860
D860
1980
1980
0000
ENDCHAR
STARTCHAR 3092
ENCODING 12434
SWIDTH 1440 0
DWIDTH 12 0
BBX 12 12 0 0
BITMAP
0C00
FFE0
FFE0
1800
7D80
7D80
DF00
FF00
6300
7FE0
7FE0
0000
ENDCHAR
STARTCHAR 3093
ENCODING 12435
SWIDTH 1440 0
DWIDTH 12 0
BBX 12 12 0 0
BITMAP
0C00
1C00
1800
1800
7C00
7C00
6300
E300
C300
C1E0
C1E0
0000
ENDCHAR
STARTCHAR 309b
ENCODING 12443
SWIDTH 1440 0
DWIDTH 12 0
BBX 12 12 0 0
BITMAP
0C00
6F00
6300
1800
1800
0000
0000
0000
0000
0000
0000
0000
ENDCHAR
STARTCHAR 309c
ENCODING 12444
SWIDTH 1440 0
DWIDTH 12 0
BBX 12 12 0 0
BITMAP
7C00
7C00
6C00
7C00
7C00
0000
0000
0000
0000
0000
0000
0000
ENDCHAR
STARTCHAR 30a1
ENCODING 12449
SWIDTH 1440 0
DWIDTH 12 0
BBX 12 12 0 0
BITMAP
0000
0000
0000
1FE0
1FE0
0060
0380
0380
0300
0C00
0C00
0000
ENDCHAR
STARTCHAR 30a2
ENCODING 12450
SWIDTH 1440 0
DWIDTH 12 0
BBX 12 12 0 0
BITMAP
1FE0
1FE0
0060
0360
03E0
0380
0300
0300
0300
0C00
0C00
0000
ENDCHAR
STARTCHAR 30a3
ENCODING 12451
SWIDTH 1440 0
DWIDTH 12 0
BBX 12 12 0 0
BITMAP
0000
0000
0000
0180
0380
0300
0F00
1F00
1B00
0300
0300
0000
ENDCHAR
STARTCHAR 30a4
ENCODING 12452
SWIDTH 1440 0
DWIDTH 12 0
BBX 12 12 0 0
BITMAP
0060
01E0
0180
0300
0F00
0F00
1B00
1B00
0300
0300
0300
0000
ENDCHAR
STARTCHAR 30a5
ENCODING 12453
SWIDTH 1440 0
DWIDTH 12 0
BBX 12 12 0 0
BITMAP
0000
0000
0000
0300
1FE0
1FE0
1860
1860
0060
0380
0380
0000
ENDCHAR
STARTCHAR 30a6
ENCODING 12454
SWIDTH 1440 0
DWIDTH 12 0
BBX 12 12 0 0
BITMAP
0300
1FE0
1FE0
1860
1860
1860
0060
01E0
0180
0300
0300
0000
ENDCHAR
STARTCHAR 30a7
ENCODING 12455
SWIDTH 1440 0
DWIDTH 12 0
BBX 12 12 0 0
BITMAP
0000
0000
0000
0000
1FE0
1FE0
0300
0300
0300
1FE0
1FE0
0000
ENDCHAR
STARTCHAR 30a8
ENCODING 12456
SWIDTH 1440 0
DWIDTH 12 0
BBX 12 12 0 0
BITMAP
0000
1FE0
1FE0
0300
0300
0300
0300
0300
0300
1FE0
1FE0
0000
ENDCHAR
STARTCHAR 30a9
ENCODING 12457
SWIDTH 1440 0
DWIDTH 12 0
BBX 12 12 0 0
BITMAP
0000
0000
0000
0180
1FE0
1FE0
0380
0F80
0D80
1980
1980
0000
ENDCHAR
STARTCHAR 30aa
ENCODING 12458
SWIDTH 1440 0
DWIDTH 12 0
BBX 12 12 0 0
BITMAP
0180
1FE0
1FE0
0180
0380
0380
0D80
1D80
1980
0180
0180
0000
ENDCHAR
STARTCHAR 30ab
ENCODING 12459
SWIDTH 1440 0
DWIDTH 12 0
BBX 12 12 0 0
BITMAP
0C00
1FE0
1FE0
0C60
0C60
0C60
0C60
0C60
0C60
1980
1980
0000
ENDCHAR
STARTCHAR 30ad
ENCODING 12461
SWIDTH 1440 0
DWIDTH 12 0
BBX 12 12 0 0
BITMAP
0300
1FE0
1FE0
0300
1FE0
1FE0
0300
0300
0300
0300
0300
0000
ENDCHAR
STARTCHAR 30af
ENCODING 12463
SWIDTH 1440 0
DWIDTH 12 0
BBX 12 12 0 0
BITMAP
0000
0FE0
0FE0
0C60
1C60
1860
0060
01E0
0180
0F00
0F00
0000
ENDCHAR
STARTCHAR 30b1
ENCODING 12465
SWIDTH 1440 0
DWIDTH 12 0
BBX 12 12 0 0
BITMAP
0C00
0FE0
0FE0
1980
1980
0180
0180
0180
0180
0300
0300
0000
ENDCHAR
STARTCHAR 30b3
ENCODING 12467
SWIDTH 1440 0
DWIDTH 12 0
BBX 12 12 0 0
BITMAP
0000
1FE0
1FE0
0060
0060
0060
0060
0060
0060
1FE0
1FE0
0000
ENDCHAR
STARTCHAR 30b5
ENCODING 12469
SWIDTH 1440 0
DWIDTH 12 0
BBX 12 12 0 0
BITMAP
0D80
1FE0
1FE0
0D80
0D80
0D80
0180
0380
0300
0C00
0C00
0000
ENDCHAR
STARTCHAR 30b7
ENCODING 12471
SWIDTH 1440 0
DWIDTH 12 0
BBX 12 12 0 0
BITMAP
0000
1C00
1C00
0060
1C60
1C60
0060
01E0
0180
1F00
1F00
0000
ENDCHAR
STARTCHAR 30b9
ENCODING 12473
SWIDTH 1440 0
DWIDTH 12 0
BBX 12 12 0 0
BITMAP
0000
1FE0
1FE0
0060
01E0
0180
0300
0F80
0D80
1860
1860
0000
ENDCHAR
STARTCHAR 30bb
ENCODING 12475
SWIDTH 1440 0
DWIDTH 12 0
BBX 12 12 0 0
BITMAP
0C00
1FE0
1FE0
0C60
0DE0
0D80
0C00
0C00
0C00
03E0
03E0
0000
ENDCHAR
STARTCHAR 30bd
ENCODING 12477
SWIDTH 1440 0
DWIDTH 12 0
BBX 12 12 0 0
BITMAP
0000
1860
1860
1860
1C60
0C60
0060
01E0
0180
0F00
0F00
0000
ENDCHAR
STARTCHAR 30bf
ENCODING 12479
SWIDTH 1440 0
DWIDTH 12 0
BBX 12 12 0 0
BITMAP
0000
0FE0
0FE0
0C60
1F60
1B60
01E0
01E0
0180
0F00
0F00
0000
ENDCHAR
STARTCHAR 30c1
ENCODING 12481
SWIDTH 1440 0
DWIDTH 12 0
BBX 12 12 0 0
BITMAP
0180
1F80
1F00
0300
1FE0
1FE0
0300
0300
0300
0C00
0C00
0000
ENDCHAR
STARTCHAR 30c3
ENCODING 12483
SWIDTH 1440 0
DWIDTH 12 0
BBX 12 12 0 0
BITMAP
0000
0000
0000
0000
1B60
1B60
1B60
1B60
0060
0380
0380
0000
ENDCHAR
STARTCHAR 30c4
ENCODING 12484
SWIDTH 1440 0
DWIDTH 12 0
BBX 12 12 0 0
BITMAP
0000
1B60
1B60
1B60
1B60
1B60
0060
01E0
0180
0300
0300
0000
ENDCHAR
STARTCHAR 30c6
ENCODING 12486
SWIDTH 1440 0
DWIDTH 12 0
BBX 12 12 0 0
BITMAP
0F80
0F80
0000
1FE0
1FE0
0300
0300
0300
0300
0C00
0C00
0000
ENDCHAR
STARTCHAR 30c8
ENCODING 12488
SWIDTH 1440 0
DWIDTH 12 0
BBX 12 12 0 0
BITMAP
0C00
0C00
0C00
0C00
0F00
0F00
0D80
0D80
0C00
0C00
0C00
0000
ENDCHAR
STARTCHAR 30ca
ENCODING 12490
SWIDTH 1440 0
DWIDTH 12 0
BBX 12 12 0 0
BITMAP
0300
0300
0300
1FE0
1FE0
0300
0300
0F00
0C00
1800
1800
0000
ENDCHAR
STARTCHAR 30cb
ENCODING 12491
SWIDTH 1440 0
DWIDTH 12 0
BBX 12 12 0 0
BITMAP
0000
0F80
0F80
0000
0000
0000
0000
0000
0000
1FE0
1FE0
0000
ENDCHAR
STARTCHAR 30cc
ENCODING 12492
SWIDTH 1440 0
DWIDTH 12 0
BBX 12 12 0 0
BITMAP
0000
1FE0
1FE0
0060
0DE0
0D80
0300
0F80
0D80
1800
1800
0000
ENDCHAR
STARTCHAR 30cd
ENCODING 12493
SWIDTH 1440 0
DWIDTH 12 0
BBX 12 12 0 0
BITMAP
0300
1FE0
1FE0
0180
0380
0300
0F80
1FE0
1B60
0300
0300
0000
ENDCHAR
STARTCHAR 30ce
ENCODING 12494
SWIDTH 1440 0
DWIDTH 12 0
BBX 12 12 0 0
BITMAP
0180
0180
0180
0180
0180
0180
0180
0380
0300
0C00
0C00
0000
ENDCHAR
STARTCHAR 30cf
ENCODING 12495
SWIDTH 1440 0
DWIDTH 12 0
BBX 12 12 0 0
BITMAP
0000
0300
0300
0180
19E0
1860
1860
1860
1860
1860
1860
0000
ENDCHAR
STARTCHAR 30d2
ENCODING 12498
SWIDTH 1440 0
DWIDTH 12 0
BBX 12 12 0 0
BITMAP
1800
1800
1800
1FE0
1FE0
1800
1800
1800
1800
0FE0
0FE0
0000
ENDCHAR
STARTCHAR 30d5
ENCODING 12501
SWIDTH 1440 0
DWIDTH 12 0
BBX 12 12 0 0
BITMAP
0000
1FE0
1FE0
0060
0060
0060
0060
01E0
0180
0F00
0F00
0000
ENDCHAR
STARTCHAR 30d8
ENCODING 12504
SWIDTH 1440 0
DWIDTH 12 0
BBX 12 12 0 0
BITMAP
0000
0C00
0C00
1B00
1B80
0180
0060
0060
0060
0000
0000
0000
ENDCHAR
STARTCHAR 30db
ENCODING 12507
SWIDTH 1440 0
DWIDTH 12 0
BBX 12 12 0 0
BITMAP
0300
1FE0
1FE0
0300
0300
0300
1B60
1B60
1B60
0300
0300
0000
ENDCHAR
STARTCHAR 30de
ENCODING 12510
SWIDTH 1440 0
DWIDTH 12 0
BBX 12 12 0 0
BITMAP
0000
1FE0
1FE0
0060
0060
0060
0D80
0F80
0300
0180
0180
0000
ENDCHAR
STARTCHAR 30df
ENCODING 12511
SWIDTH 1440 0
DWIDTH 12 0
BBX 12 12 0 0
BITMAP
0000
0F80
0F80
0000
0F80
0F80
0000
1F80
1F80
0060
0060
0000
ENDCHAR
STARTCHAR 30e0
ENCODING 12512
SWIDTH 1440 0
DWIDTH 12 0
BBX 12 12 0 0
BITMAP
0000
0300
0300
0C00
1C00
1800
1860
1FE0
1FE0
0060
0060
0000
ENDCHAR
STARTCHAR 30e1
ENCODING 12513
SWIDTH 1440 0
DWIDTH 12 0
BBX 12 12 0 0
BITMAP
0000
0060
0060
0060
0DE0
0D80
0300
0F80
0D80
1800
1800
0000
ENDCHAR
STARTCHAR 30e2
ENCODING 12514
SWIDTH 1440 0
DWIDTH 12 0
BBX 12 12 0 0
BITMAP
0000
1FE0
1FE0
0C00
1FE0
1FE0
0C00
0C00
0C00
03E0
03E0
0000
ENDCHAR
STARTCHAR 30e3
ENCODING 12515
SWIDTH 1440 0
DWIDTH 12 0
BBX 12 12 0 0
BITMAP
0000
0000
0000
0C00
1FE0
1FE0
0C60
0DE0
0D80
0C00
0C00
0000
ENDCHAR
STARTCHAR 30e4
ENCODING 12516
SWIDTH 1440 0
DWIDTH 12 0
BBX 12 12 0 0
BITMAP
0C00
0C00
0C00
1FE0
1FE0
0C60
0D80
0D80
0C00
0C00
0C00
0000
ENDCHAR
STARTCHAR 30e5
ENCODING 12517
SWIDTH 1440 0
DWIDTH 12 0
BBX 12 12 0 0
BITMAP
0000
0000
0000
0000
0F80
0F80
0180
0180
0180
1FE0
1FE0
0000
ENDCHAR
STARTCHAR 30e6
ENCODING 12518
SWIDTH 1440 0
DWIDTH 12 0
BBX 12 12 0 0
BITMAP
0000
0F80
0F80
0180
0180
0180
0180
0180
0180
1FE0
1FE0
0000
ENDCHAR
STARTCHAR 30e7
ENCODING 12519
SWIDTH 1440 0
DWIDTH 12 0
BBX 12 12 0 0
BITMAP
0000
0000
0000
1F80
1F80
0180
1F80
1F80
0180
1F80
1F80
0000
ENDCHAR
STARTCHAR 30e8
ENCODING 12520
SWIDTH 1440 0
DWIDTH 12 0
BBX 12 12 0 0
BITMAP
0000
1FE0
1FE0
0060
1FE0
1FE0
0060
0060
0060
1FE0
1FE0
0000
ENDCHAR
STARTCHAR 30e9
ENCODING 12521
SWIDTH 1440 0
DWIDTH 12 0
BBX 12 12 0 0
BITMAP
0F80
0F80
0000
1FE0
1FE0
0060
0060
01E0
0180
0300
0300
0000
ENDCHAR
STARTCHAR 30ea
ENCODING 12522
SWIDTH 1440 0
DWIDTH 12 0
BBX 12 12 0 0
BITMAP
1980
1980
1980
1980
1980
1980
0180
0380
0300
0C00
0C00
0000
ENDCHAR
STARTCHAR 30eb
ENCODING 12523
SWIDTH 1440 0
DWIDTH 12 0
BBX 12 12 0 0
BITMAP
0000
0300
0300
1B00
1B00
1B00
1B60
1B60
1B60
1B80
1B80
0000
ENDCHAR
STARTCHAR 30ec
ENCODING 12524
SWIDTH 1440 0
DWIDTH 12 0
BBX 12 12 0 0
BITMAP
0000
1800
1800
1800
1860
1860
1980
1B80
1B00
1C00
1C00
0000
ENDCHAR
STARTCHAR 30ed
ENCODING 12525
SWIDTH 1440 0
DWIDTH 12 0
BBX 12 12 0 0
BITMAP
0000
1FE0
1FE0
1860
1860
1860
1860
1860
1860
1FE0
1FE0
0000
ENDCHAR
STARTCHAR 30ef
ENCODING 12527
SWIDTH 1440 0
DWIDTH 12 0
BBX 12 12 0 0
BITMAP
0000
1FE0
1FE0
1860
1860
1860
0060
01E0
0180
0300
0300
0000
ENDCHAR
STARTCHAR 30f2
ENCODING 12530
SWIDTH 1440 0
DWIDTH 12 0
BBX 12 12 0 0
BITMAP
0000
1FE0
1FE0
0060
1FE0
1FE0
0060
01E0
0180
0300
0300
0000
ENDCHAR
STARTCHAR 30f3
ENCODING 12531
SWIDTH 1440 0
DWIDTH 12 0
BBX 12 12 0 0
BITMAP
0000
1C00
1C00
0000
0060
0060
0060
01E0
0180
1F00
1F00
0000
ENDCHAR
STARTCHAR 30fb
ENCODING 12539
SWIDTH 1440 0
DWIDTH 12 0
BBX 12 12 0 0
BITMAP
0000
0000
0000
0000
0000
0000
0000
0000
0000
1800
1800
0000
ENDCHAR
STARTCHAR 30fc
ENCODING 12540
SWIDTH 1440 0
DWIDTH 12 0
BBX 12 12 0 0
BITMAP
0000
0000
0000
0000
0F80
0F80
0000
0000
0000
0000
0000
0000
ENDCHAR
STARTCHAR 4eba
ENCODING 20154
SWIDTH 1440 0
DWIDTH 12 0
BBX 12 12 0 0
BITMAP
0F80
0F80
0F80
0300
1FE0
1FE0
0300
0300
0300
0D80
1DE0
1860
ENDCHAR
STARTCHAR 5012
ENCODING 20498
SWIDTH 1440 0
DWIDTH 12 0
BBX 12 12 0 0
BITMAP
0000
C300
C300
6370
7FF0
1FF0
6370
E370
C300
0000
0000
0000
ENDCHAR
STARTCHAR 516b
ENCODING 20843
SWIDTH 1440 0
DWIDTH 12 0
BBX 12 12 0 0
BITMAP
0000
0C30
0C30
EC60
FFE0
FF80
EC60
EC70
0C30
0000
0000
0000
ENDCHAR
STARTCHAR 5186
ENCODING 20870
SWIDTH 1440 0
DWIDTH 12 0
BBX 12 12 0 0
BITMAP
7FF0
7FF0
6330
6330
7FF0
7FF0
6030
6030
6030
6030
6030
0000
ENDCHAR
STARTCHAR 5206
ENCODING 20998
SWIDTH 1440 0
DWIDTH 12 0
BBX 12 12 0 0
BITMAP
0300
0F80
0D80
1860
7FF0
7FF0
0C60
0C60
0C60
1980
1980
0000
ENDCHAR
STARTCHAR 53cd
ENCODING 21453
SWIDTH 1440 0
DWIDTH 12 0
BBX 12 12 0 0
BITMAP
C300
CF00
CC00
D800
F800
E000
E000
FB00
DB00
CF00
DF00
DF00
ENDCHAR
STARTCHAR 571f
ENCODING 22303
SWIDTH 1440 0
DWIDTH 12 0
BBX 12 12 0 0
BITMAP
0000
0300
0300
0300
1FE0
1FE0
0300
0300
0300
7FF0
7FF0
0000
ENDCHAR
STARTCHAR 5c04
ENCODING 23556
SWIDTH 1440 0
DWIDTH 12 0
BBX 12 12 0 0
BITMAP
DB00
DF00
DC00
DF00
FF00
E000
E000
F800
D800
CC00
CF00
C300
ENDCHAR
STARTCHAR 5e74
ENCODING 24180
SWIDTH 1440 0
DWIDTH 12 0
BBX 12 12 0 0
BITMAP
1800
1FE0
1FE0
6300
7F80
1F80
1B00
7FE0
7FE0
0300
0300
0000
ENDCHAR
STARTCHAR 62bc
ENCODING 25276
SWIDTH 1440 0
DWIDTH 12 0
BBX 12 12 0 0
BITMAP
0F80
0F80
0F80
1FE0
1FE0
0F80
0300
0300
0000
1FE0
1FE0
0000
ENDCHAR
STARTCHAR 65e5
ENCODING 26085
SWIDTH 1440 0
DWIDTH 12 0
BBX 12 12 0 0
BITMAP
1FE0
1FE0
1860
1860
1FE0
1FE0
1860
1860
1860
1FE0
1FE0
0000
ENDCHAR
STARTCHAR 661f
ENCODING 26143
SWIDTH 1440 0
DWIDTH 12 0
BBX 12 12 0 0
BITMAP
0000
1870
1870
19B0
1BB0
1B30
FC30
FF30
1B30
19B0
19F0
1870
ENDCHAR
STARTCHAR 6642
ENCODING 26178
SWIDTH 1440 0
DWIDTH 12 0
BBX 12 12 0 0
BITMAP
0180
7FE0
7FE0
6D80
7FF0
7FF0
6C60
7FF0
7FF0
0360
0360
0000
ENDCHAR
STARTCHAR 6708
ENCODING 26376
SWIDTH 1440 0
DWIDTH 12 0
BBX 12 12 0 0
BITMAP
1FE0
1FE0
1860
1FE0
1FE0
1860
1FE0
1FE0
1860
6060
6060
0000
ENDCHAR
STARTCHAR 6728
ENCODING 26408
SWIDTH 1440 0
DWIDTH 12 0
BBX 12 12 0 0
BITMAP
0300
0300
0300
1FE0
1FE0
0300
0F80
1FE0
1B60
6330
6330
0000
ENDCHAR
STARTCHAR 672a
ENCODING 26410
SWIDTH 1440 0
DWIDTH 12 0
BBX 12 12 0 0
BITMAP
0F00
1F80
1980
7FE0
FFF0
FFF0
6F60
7FE0
1980
0000
0000
0000
ENDCHAR
STARTCHAR 6a2a
ENCODING 27178
SWIDTH 1440 0
DWIDTH 12 0
BBX 12 12 0 0
BITMAP
F800
F9F0
61F0
6060
7FE0
7FE0
6060
61F0
61F0
F800
F800
0000
ENDCHAR
STARTCHAR 6c34
ENCODING 27700
SWIDTH 1440 0
DWIDTH 12 0
BBX 12 12 0 0
BITMAP
0300
0330
0330
1F60
1FE0
0380
0F80
1FE0
1B60
6330
6330
0000
ENDCHAR
STARTCHAR 6c60
ENCODING 27744
SWIDTH 1440 0
DWIDTH 12 0
BBX 12 12 0 0
BITMAP
0300
0300
0300
1FE0
1FE0
0000
0000
1FE0
1FE0
0300
0300
0300
ENDCHAR
STARTCHAR 706b
ENCODING 28779
SWIDTH 1440 0
DWIDTH 12 0
BBX 12 12 0 0
BITMAP
0300
1B60
1B60
1B60
1B60
0300
0D80
1DE0
1860
6030
6030
0000
ENDCHAR
STARTCHAR 751f
ENCODING 29983
SWIDTH 1440 0
DWIDTH 12 0
BBX 12 12 0 0
BITMAP
0300
6300
6300
7FE0
7FE0
6300
1FE0
1FE0
0300
7FF0
7FF0
0000
ENDCHAR
STARTCHAR 79d2
ENCODING 31186
SWIDTH 1440 0
DWIDTH 12 0
BBX 12 12 0 0
BITMAP
1F00
1F60
0C60
7FF0
7FF0
0DF0
1F70
7F70
6C60
0D80
0D80
0000
ENDCHAR
STARTCHAR 86c7
ENCODING 34503
SWIDTH 1440 0
DWIDTH 12 0
BBX 12 12 0 0
BITMAP
0000
E000
E000
E300
EF80
6D80
6D80
6DB0
6DB0
1860
1860
0000
ENDCHAR
STARTCHAR 885b
ENCODING 34907
SWIDTH 1440 0
DWIDTH 12 0
BBX 12 12 0 0
BITMAP
0000
E180
E180
D980
DD80
CD80
C3F0
CFF0
CD80
D980
F980
E180
ENDCHAR
STARTCHAR 8eca
ENCODING 36554
SWIDTH 1440 0
DWIDTH 12 0
BBX 12 12 0 0
BITMAP
1860
1FE0
1FE0
1B60
1B60
0300
0300
6330
6330
7FF0
7FF0
6030
ENDCHAR
STARTCHAR 9006
ENCODING 36870
SWIDTH 1440 0
DWIDTH 12 0
BBX 12 12 0 0
BITMAP
1860
1DE0
0D80
0300
0300
0300
1FE0
1FE0
0300
0F80
0F80
0F80
ENDCHAR
STARTCHAR 91d1
ENCODING 37329
SWIDTH 1440 0
DWIDTH 12 0
BBX 12 12 0 0
BITMAP
0300
0F80
0D80
1FE0
7FF0
6330
1FE0
1FE0
0F80
7FF0
7FF0
0000
ENDCHAR
STARTCHAR 96fb
ENCODING 38651
SWIDTH 1440 0
DWIDTH 12 0
BBX 12 12 0 0
BITMAP
0000
0000
0000
1980
1980
1980
F9F0
F9F0
1980
1980
1980
0000
ENDCHAR
STARTCHAR ff01
ENCODING 65281
SWIDTH 1440 0
DWIDTH 12 0
BBX 12 12 0 0
BITMAP
0300
0F00
0C00
1800
1C00
0C00
0300
0380
0180
0060
01E0
0180
ENDCHAR
STARTCHAR ff0c
ENCODING 65292
SWIDTH 1440 0
DWIDTH 12 0
BBX 12 12 0 0
BITMAP
0000
0000
0000
0000
0000
0000
0000
6000
6000
1800
1C00
0C00
ENDCHAR
STARTCHAR ff0e
ENCODING 65294
SWIDTH 1440 0
DWIDTH 12 0
BBX 12 12 0 0
BITMAP
0000
0000
0000
0000
0000
0000
0000
0000
0000
1800
1800
0000
ENDCHAR
STARTCHAR ff0f
ENCODING 65295
SWIDTH 1440 0
DWIDTH 12 0
BBX 12 12 0 0
BITMAP
0030
0070
0060
0180
0380
0300
0C00
1C00
1800
6000
E000
C000
ENDCHAR
STARTCHAR ff11
ENCODING 65297
SWIDTH 1440 0
DWIDTH 12 0
BBX 12 12 0 0
BITMAP
0000
0000
0000
0000
0000
0000
0000
0000
0000
FFF0
FFF0
0000
ENDCHAR
STARTCHAR ff12
ENCODING 65298
SWIDTH 1440 0
DWIDTH 12 0
BBX 12 12 0 0
BITMAP
0000
0000
0000
0000
0000
0000
0000
FFF0
FFF0
0000
0000
0000
ENDCHAR
STARTCHAR ff13
ENCODING 65299
SWIDTH 1440 0
DWIDTH 12 0
BBX 12 12 0 0
BITMAP
0000
0000
0000
0000
FFF0
FFF0
0000
0000
0000
0000
0000
0000
ENDCHAR
STARTCHAR ff14
ENCODING 65300
SWIDTH 1440 0
DWIDTH 12 0
BBX 12 12 0 0
BITMAP
0000
0000
0000
FFF0
FFF0
0000
0000
0000
0000
0000
0000
0000
ENDCHAR
STARTCHAR ff15
ENCODING 65301
SWIDTH 1440 0
DWIDTH 12 0
BBX 12 12 0 0
BITMAP
0000
FFF0
FFF0
0000
0000
0000
0000
0000
0000
0000
0000
0000
ENDCHAR
STARTCHAR ff1c
ENCODING 65308
SWIDTH 1440 0
DWIDTH 12 0
BBX 12 12 0 0
BITMAP
0000
7C00
7C00
C300
E380
6180
1870
1870
1800
6000
E000
C000
ENDCHAR
STARTCHAR ff1d
ENCODING 65309
SWIDTH 1440 0
DWIDTH 12 0
BBX 12 12 0 0
BITMAP
0000
FFF0
FFF0
0000
C030
C030
6060
6060
6060
C030
C030
0000
ENDCHAR
STARTCHAR ff1e
ENCODING 65310
SWIDTH 1440 0
DWIDTH 12 0
BBX 12 12 0 0
BITMAP
0000
03E0
03E0
0C30
1C70
1860
E180
E180
0180
0060
0070
0030
ENDCHAR
STARTCHAR ff39
ENCODING 65337
SWIDTH 1440 0
DWIDTH 12 0
BBX 12 12 0 0
BITMAP
C000
E000
6000
1800
1C00
0C00
0FF0
1FF0
1800
6000
E000
C000
ENDCHAR
STARTCHAR ff3c
ENCODING 65340
SWIDTH 1440 0
DWIDTH 12 0
BBX 12 12 0 0
BITMAP
C000
E000
6000
1800
1C00
0C00
0300
0380
0180
0060
0070
0030
ENDCHAR
STARTCHAR ffe1
ENCODING 65505
SWIDTH 1440 0
DWIDTH 12 0
BBX 12 12 0 0
BITMAP
0380
0FE0
0C60
0C00
1F00
1F00
0C00
0C00
0C00
1FE0
1FE0
0000
ENDCHAR
STARTCHAR ffe3
ENCODING 65507
SWIDTH 1440 0
DWIDTH 12 0
BBX 12 12 0 0
BITMAP
FFF0
FFF0
0000
0000
0000
0000
0000
0000
0000
0000
0000
0000
ENDCHAR
STARTCHAR ffe5
ENCODING 65509
SWIDTH 1440 0
DWIDTH 12 0
BBX 12 12 0 0
BITMAP
1860
1DE0
0D80
1FE0
1FE0
0300
1FE0
1FE0
0300
0300
0300
0000
ENDCHAR
ENDFONT
